# xmcd
#
# Track frame offsets: 
#        150
#        17925
#        35027
#        51733
#        80873
#
# Disc length: 2474 seconds
#
# Revision: 3
# Processed by: cddbd v1.4PL0 Copyright (c) Steve Scherf et al.
# Submitted via: ExactAudioCopy v0.90b4
#
DISCID=4809a805
DTITLE=Shania Twain - Man! I Feel Like a Woman!
DYEAR=1999
DGENRE=Pop
TTITLE0=Man! I Feel Like a Woman! (Album Version)
TTITLE1=I'm Holding on to Love (to Save My Life) (Pop Mix)
TTITLE2=Love Gets Me Every Time (Mach 3 Remix)
TTITLE3=Man! I Feel Like a Woman! (Alternate Mix)
TTITLE4=Man! I Feel Like a Woman! (Video)
EXTD=
EXTT0=
EXTT1=
EXTT2=
EXTT3=
EXTT4=
PLAYORDER=
